<?xml version="1.0" encoding="UTF-8"?>
<svg xmlns="http://www.w3.org/2000/svg" xmlns:xlink="http://www.w3.org/1999/xlink" width="375pt" height="374.999991pt" viewBox="0 0 375 374.999991" version="1.2">
<defs>
<clipPath id="clip1">
  <path d="M 7.789062 90 L 142 90 L 142 205 L 7.789062 205 Z M 7.789062 90 "/>
</clipPath>
<clipPath id="clip2">
  <path d="M 265 30.703125 L 330 30.703125 L 330 78 L 265 78 Z M 265 30.703125 "/>
</clipPath>
<clipPath id="clip3">
  <path d="M 217 79 L 367 79 L 367 344.203125 L 217 344.203125 Z M 217 79 "/>
</clipPath>
</defs>
<g id="surface1">
<path style=" stroke:none;fill-rule:nonzero;fill:rgb(72.938538%,100%,16.079712%);fill-opacity:1;" d="M 122.050781 217.9375 C 112.019531 222.523438 95.160156 223.714844 90.21875 223.972656 C 89.964844 223.984375 89.714844 223.992188 89.464844 223.992188 C 82.144531 223.992188 76.039062 218.597656 75.011719 211.480469 L 18.894531 211.480469 L 18.894531 224.257812 L 123.195312 224.257812 L 123.195312 217.414062 Z M 122.050781 217.9375 "/>
<g clip-path="url(#clip1)" clip-rule="nonzero">
<path style=" stroke:none;fill-rule:nonzero;fill:rgb(72.938538%,100%,16.079712%);fill-opacity:1;" d="M 88.707031 194.765625 C 92.359375 194.570312 97.625 194.042969 102.238281 193.257812 L 102.238281 179.535156 L 105.003906 179.535156 C 105.535156 176.953125 106.089844 174.492188 106.679688 172.171875 C 106.777344 171.777344 106.894531 171.394531 107.023438 171.015625 L 16.351562 171.015625 L 16.351562 98.601562 L 130.847656 98.601562 C 133.785156 95.121094 137.378906 92.21875 141.441406 90.082031 L 7.835938 90.082031 L 7.835938 179.535156 L 59.648438 179.535156 L 59.648438 194.679688 L 44.984375 194.679688 L 44.984375 204.144531 L 75.828125 204.144531 C 77.839844 198.921875 82.765625 195.078125 88.707031 194.765625 Z M 88.707031 194.765625 "/>
</g>
<path style=" stroke:none;fill-rule:nonzero;fill:rgb(72.938538%,100%,16.079712%);fill-opacity:1;" d="M 125.8125 121.273438 C 125.8125 126.625 127.136719 131.664062 129.460938 136.09375 C 132.359375 135.144531 135.121094 134.828125 137.0625 134.828125 C 137.421875 134.828125 137.769531 134.835938 138.101562 134.855469 L 186.667969 134.855469 C 188.609375 130.734375 189.695312 126.132812 189.695312 121.277344 C 189.695312 103.632812 175.394531 89.328125 157.753906 89.328125 C 140.113281 89.328125 125.8125 103.628906 125.8125 121.273438 Z M 125.8125 121.273438 "/>
<path style=" stroke:none;fill-rule:nonzero;fill:rgb(72.938538%,100%,16.079712%);fill-opacity:1;" d="M 128.558594 322.207031 C 128.664062 320.792969 128.613281 319.347656 128.355469 317.886719 L 121.90625 281.675781 L 121.253906 281.675781 C 111.664062 281.675781 103.863281 273.875 103.863281 264.285156 C 103.863281 254.691406 111.664062 246.890625 121.253906 246.890625 L 134.5 246.890625 L 134.5 178.027344 C 134.5 160.019531 149.148438 145.371094 167.152344 145.371094 L 208.777344 145.371094 C 207.863281 144.46875 206.925781 143.617188 205.941406 142.871094 C 205.460938 142.507812 204.988281 142.171875 204.515625 141.859375 C 199.515625 138.550781 194.953125 138.015625 192.082031 138.121094 L 138.007812 138.121094 C 131.417969 137.714844 117.890625 141.164062 109.84375 172.972656 C 108.167969 179.601562 106.738281 187.308594 105.585938 195.953125 C 100.363281 197.042969 93.503906 197.78125 88.878906 198.023438 C 82.617188 198.355469 77.804688 203.699219 78.132812 209.964844 C 78.453125 216.023438 83.464844 220.726562 89.464844 220.726562 C 89.664062 220.726562 89.859375 220.722656 90.0625 220.710938 C 93.464844 220.535156 110.9375 219.425781 120.691406 214.964844 L 123.195312 213.824219 L 123.195312 186.84375 C 124.34375 186.59375 125.449219 186.191406 126.460938 185.613281 L 126.460938 229.949219 L 98.132812 229.949219 C 92.984375 229.949219 88.105469 232.226562 84.800781 236.171875 C 81.496094 240.117188 80.109375 245.324219 81.007812 250.390625 L 94.109375 323.984375 C 95.613281 332.410156 102.945312 338.332031 111.210938 338.332031 C 112.222656 338.332031 113.25 338.242188 114.28125 338.058594 C 117.777344 337.4375 120.839844 335.804688 123.230469 333.519531 C 123.199219 333.164062 123.175781 332.800781 123.175781 332.433594 C 123.175781 328.195312 125.3125 324.453125 128.558594 322.207031 Z M 128.558594 322.207031 "/>
<path style=" stroke:none;fill-rule:nonzero;fill:rgb(72.938538%,100%,16.079712%);fill-opacity:1;" d="M 229.242188 166.363281 C 220.933594 166.363281 214.089844 159.855469 213.65625 151.550781 C 213.621094 150.902344 213.640625 150.261719 213.6875 149.628906 L 167.15625 149.628906 C 151.539062 149.628906 138.761719 162.410156 138.761719 178.027344 L 138.761719 249.019531 C 138.761719 249.738281 138.816406 250.441406 138.871094 251.148438 L 121.253906 251.148438 C 114.03125 251.148438 108.121094 257.058594 108.121094 264.28125 C 108.121094 271.503906 114.03125 277.414062 121.253906 277.414062 L 167.300781 277.414062 L 167.300781 323.738281 C 167.300781 323.917969 167.320312 324.09375 167.328125 324.269531 L 135.597656 324.269531 C 131.105469 324.269531 127.433594 327.945312 127.433594 332.433594 C 127.433594 336.921875 131.105469 340.597656 135.597656 340.597656 L 225.269531 340.597656 C 229.757812 340.597656 233.433594 336.925781 233.433594 332.433594 C 233.433594 327.945312 229.757812 324.269531 225.269531 324.269531 L 193.535156 324.269531 C 193.542969 324.09375 193.5625 323.917969 193.5625 323.738281 L 193.5625 277.414062 L 219.207031 277.414062 C 234.820312 277.414062 247.597656 264.636719 247.597656 249.019531 L 247.597656 178.027344 C 247.597656 173.296875 246.410156 168.835938 244.34375 164.90625 C 238.136719 165.839844 232.574219 166.210938 230.074219 166.339844 C 229.792969 166.355469 229.519531 166.363281 229.242188 166.363281 Z M 229.242188 166.363281 "/>
<path style=" stroke:none;fill-rule:nonzero;fill:rgb(72.938538%,100%,16.079712%);fill-opacity:1;" d="M 60.402344 137.675781 L 42.003906 121.980469 C 39.386719 125.53125 37.820312 129.90625 37.820312 134.65625 C 37.820312 146.480469 47.410156 156.070312 59.234375 156.070312 C 71.058594 156.070312 80.644531 146.480469 80.644531 134.65625 C 80.644531 130.550781 79.46875 126.726562 77.464844 123.46875 Z M 60.402344 137.675781 "/>
<path style=" stroke:none;fill-rule:nonzero;fill:rgb(72.938538%,100%,16.079712%);fill-opacity:1;" d="M 60.433594 132.105469 L 74.886719 120.074219 C 70.976562 115.878906 65.421875 113.238281 59.234375 113.238281 C 53.695312 113.238281 48.664062 115.363281 44.859375 118.816406 Z M 60.433594 132.105469 "/>
<path style=" stroke:none;fill-rule:nonzero;fill:rgb(72.938538%,100%,16.079712%);fill-opacity:1;" d="M 90.820312 117.023438 L 97.679688 117.023438 L 97.679688 123.886719 L 90.820312 123.886719 Z M 90.820312 117.023438 "/>
<path style=" stroke:none;fill-rule:nonzero;fill:rgb(72.938538%,100%,16.079712%);fill-opacity:1;" d="M 103.242188 117.023438 L 110.101562 117.023438 L 110.101562 123.886719 L 103.242188 123.886719 Z M 103.242188 117.023438 "/>
<path style=" stroke:none;fill-rule:nonzero;fill:rgb(72.938538%,100%,16.079712%);fill-opacity:1;" d="M 90.820312 128.917969 L 97.679688 128.917969 L 97.679688 135.777344 L 90.820312 135.777344 Z M 90.820312 128.917969 "/>
<path style=" stroke:none;fill-rule:nonzero;fill:rgb(72.938538%,100%,16.079712%);fill-opacity:1;" d="M 103.242188 128.917969 L 110.101562 128.917969 L 110.101562 135.777344 L 103.242188 135.777344 Z M 103.242188 128.917969 "/>
<path style=" stroke:none;fill-rule:nonzero;fill:rgb(72.938538%,100%,16.079712%);fill-opacity:1;" d="M 21.257812 103.0625 L 44.683594 103.0625 L 44.683594 107.796875 L 21.257812 107.796875 Z M 21.257812 103.0625 "/>
<g clip-path="url(#clip2)" clip-rule="nonzero">
<path style=" stroke:none;fill-rule:nonzero;fill:rgb(72.938538%,100%,16.079712%);fill-opacity:1;" d="M 277.886719 76.089844 L 326.511719 76.089844 C 328.410156 72 329.476562 67.453125 329.476562 62.648438 C 329.476562 45.003906 315.175781 30.703125 297.535156 30.703125 C 279.894531 30.703125 265.59375 45.003906 265.59375 62.648438 C 265.59375 68.042969 266.9375 73.121094 269.296875 77.578125 C 272.121094 76.421875 274.722656 76.058594 276.84375 76.058594 C 277.203125 76.058594 277.550781 76.070312 277.886719 76.089844 Z M 277.886719 76.089844 "/>
</g>
<g clip-path="url(#clip3)" clip-rule="nonzero">
<path style=" stroke:none;fill-rule:nonzero;fill:rgb(72.938538%,100%,16.079712%);fill-opacity:1;" d="M 345.722656 84.246094 C 345.339844 83.957031 344.964844 83.695312 344.589844 83.441406 C 339.476562 79.957031 334.789062 79.390625 331.863281 79.496094 L 277.789062 79.496094 C 271.199219 79.09375 257.667969 82.542969 249.625 114.347656 C 247.945312 120.980469 246.519531 128.683594 245.367188 137.320312 C 240.09375 138.417969 233.152344 139.167969 228.664062 139.398438 C 222.398438 139.726562 217.585938 145.066406 217.910156 151.332031 C 218.226562 157.398438 223.242188 162.101562 229.242188 162.101562 C 229.441406 162.101562 229.640625 162.097656 229.839844 162.085938 C 233.246094 161.910156 250.71875 160.804688 260.472656 156.339844 L 263.117188 155.132812 L 263.117188 128.191406 C 264.214844 127.9375 265.269531 127.542969 266.238281 126.988281 L 266.238281 326.71875 C 266.238281 336.414062 274.097656 344.269531 283.792969 344.269531 C 293.484375 344.269531 301.34375 336.414062 301.34375 326.71875 L 301.34375 198.546875 L 307.921875 198.546875 L 307.921875 326.71875 C 307.921875 336.414062 315.785156 344.269531 325.476562 344.269531 C 335.167969 344.269531 343.027344 336.414062 343.027344 326.71875 L 343.027344 124.671875 L 346.152344 124.671875 L 346.152344 168.394531 C 346.246094 168.375 346.339844 168.359375 346.433594 168.339844 C 352.273438 167.078125 357.550781 164.957031 361.160156 161.519531 C 365.0625 157.804688 367.035156 152.847656 366.710938 147.554688 C 364.660156 114.121094 357.792969 93.414062 345.722656 84.246094 Z M 345.722656 84.246094 "/>
</g>
</g>
</svg>
