<?xml version="1.0" encoding="UTF-8"?>
<svg xmlns="http://www.w3.org/2000/svg" xmlns:xlink="http://www.w3.org/1999/xlink" width="375pt" height="374.999991pt" viewBox="0 0 375 374.999991" version="1.2">
<defs>
<clipPath id="clip1">
  <path d="M 12.328125 12.328125 L 362.578125 12.328125 L 362.578125 362.578125 L 12.328125 362.578125 Z M 12.328125 12.328125 "/>
</clipPath>
</defs>
<g id="surface1">
<g clip-path="url(#clip1)" clip-rule="nonzero">
<path style=" stroke:none;fill-rule:nonzero;fill:rgb(72.938538%,100%,16.079712%);fill-opacity:1;" d="M 187.453125 362.578125 C 284.171875 362.578125 362.578125 284.171875 362.578125 187.453125 C 362.578125 90.730469 284.171875 12.328125 187.453125 12.328125 C 90.730469 12.328125 12.328125 90.730469 12.328125 187.453125 C 12.328125 284.171875 90.730469 362.578125 187.453125 362.578125 Z M 187.453125 24 C 277.578125 24 350.902344 97.324219 350.902344 187.453125 C 350.902344 277.578125 277.578125 350.902344 187.453125 350.902344 C 97.324219 350.902344 24 277.578125 24 187.453125 C 24 97.324219 97.324219 24 187.453125 24 Z M 187.453125 24 "/>
</g>
<path style=" stroke:none;fill-rule:nonzero;fill:rgb(72.938538%,100%,16.079712%);fill-opacity:1;" d="M 238.984375 284.308594 L 284.542969 284.308594 C 290.015625 284.308594 294.472656 279.851562 294.472656 274.378906 L 294.472656 184.023438 C 294.472656 178.546875 290.015625 174.089844 284.542969 174.089844 L 238.984375 174.089844 C 233.511719 174.089844 229.054688 178.546875 229.054688 184.023438 L 229.054688 274.378906 C 229.054688 279.851562 233.511719 284.308594 238.984375 284.308594 Z M 238.984375 284.308594 "/>
<path style=" stroke:none;fill-rule:nonzero;fill:rgb(72.938538%,100%,16.079712%);fill-opacity:1;" d="M 164.691406 284.308594 L 210.207031 284.308594 C 215.683594 284.308594 220.136719 279.851562 220.136719 274.378906 L 220.136719 138.089844 C 220.136719 132.617188 215.679688 128.164062 210.207031 128.164062 L 164.691406 128.164062 C 159.21875 128.164062 154.765625 132.617188 154.765625 138.089844 L 154.765625 274.378906 C 154.765625 279.851562 159.21875 284.308594 164.691406 284.308594 Z M 164.691406 284.308594 "/>
<path style=" stroke:none;fill-rule:nonzero;fill:rgb(72.938538%,100%,16.079712%);fill-opacity:1;" d="M 90.359375 284.308594 L 135.917969 284.308594 C 141.390625 284.308594 145.847656 279.851562 145.847656 274.378906 L 145.847656 222.457031 C 145.847656 216.984375 141.390625 212.53125 135.917969 212.53125 L 90.359375 212.53125 C 84.886719 212.53125 80.429688 216.984375 80.429688 222.457031 L 80.429688 274.378906 C 80.429688 279.851562 84.886719 284.308594 90.359375 284.308594 Z M 90.359375 284.308594 "/>
<path style=" stroke:none;fill-rule:nonzero;fill:rgb(72.938538%,100%,16.079712%);fill-opacity:1;" d="M 96.753906 181.089844 L 93.820312 198.183594 C 93.4375 200.417969 95.78125 202.117188 97.789062 201.0625 L 113.140625 192.992188 L 128.492188 201.0625 C 130.496094 202.117188 132.839844 200.417969 132.457031 198.183594 L 129.527344 181.089844 L 141.945312 168.984375 C 143.570312 167.402344 142.671875 164.644531 140.429688 164.320312 L 123.265625 161.824219 L 115.589844 146.273438 C 114.589844 144.242188 111.691406 144.242188 110.6875 146.273438 L 103.011719 161.824219 L 85.851562 164.320312 C 83.605469 164.644531 82.710938 167.402344 84.335938 168.984375 Z M 96.753906 181.089844 "/>
<path style=" stroke:none;fill-rule:nonzero;fill:rgb(72.938538%,100%,16.079712%);fill-opacity:1;" d="M 171.066406 96.71875 L 168.132812 113.816406 C 167.75 116.046875 170.09375 117.75 172.101562 116.695312 L 187.453125 108.625 L 202.804688 116.695312 C 204.808594 117.75 207.152344 116.046875 206.769531 113.816406 L 203.835938 96.71875 L 216.257812 84.613281 C 217.878906 83.03125 216.984375 80.277344 214.742188 79.953125 L 197.578125 77.457031 L 189.902344 61.902344 C 188.898438 59.871094 186.003906 59.871094 185 61.902344 L 177.324219 77.457031 L 160.160156 79.953125 C 157.917969 80.277344 157.023438 83.03125 158.644531 84.613281 Z M 171.066406 96.71875 "/>
<path style=" stroke:none;fill-rule:nonzero;fill:rgb(72.938538%,100%,16.079712%);fill-opacity:1;" d="M 245.378906 142.648438 L 242.445312 159.746094 C 242.0625 161.976562 244.40625 163.679688 246.414062 162.625 L 261.765625 154.554688 L 277.117188 162.625 C 279.121094 163.679688 281.464844 161.976562 281.082031 159.746094 L 278.152344 142.648438 L 290.570312 130.542969 C 292.195312 128.960938 291.296875 126.207031 289.054688 125.882812 L 271.890625 123.386719 L 264.21875 107.832031 C 263.214844 105.800781 260.316406 105.800781 259.3125 107.832031 L 251.636719 123.386719 L 234.476562 125.882812 C 232.230469 126.207031 231.335938 128.960938 232.960938 130.542969 Z M 245.378906 142.648438 "/>
</g>
</svg>
