<?xml version="1.0" encoding="UTF-8"?><svg xmlns="http://www.w3.org/2000/svg" xmlns:xlink="http://www.w3.org/1999/xlink" width="375pt" zoomAndPan="magnify" viewBox="0 0 375 374.999991" height="374.999991pt" preserveAspectRatio="xMidYMid meet" version="1.2"><defs><clipPath xml:id="clip1" id="clip1"><path d="M 48.78125 48.78125 L 326.28125 48.78125 L 326.28125 326.28125 L 48.78125 326.28125 Z M 48.78125 48.78125 "/></clipPath></defs><g xml:id="surface1" id="surface1"><g clip-rule="nonzero" clip-path="url(#clip1)"><path style=" stroke:none;fill-rule:nonzero;fill:rgb(100%,100%,100%);fill-opacity:1;" d="M 187.34375 48.59375 C 146.34375 48.59375 109.425781 66.503906 84.058594 94.839844 C 83.5 95.421875 83.007812 96.058594 82.582031 96.742188 C 82.152344 97.425781 81.796875 98.144531 81.511719 98.902344 C 81.226562 99.65625 81.023438 100.433594 80.894531 101.230469 C 80.765625 102.027344 80.71875 102.828125 80.75 103.632812 C 80.78125 104.441406 80.894531 105.234375 81.085938 106.019531 C 81.277344 106.804688 81.546875 107.5625 81.890625 108.289062 C 82.234375 109.019531 82.648438 109.710938 83.128906 110.355469 C 83.613281 111.003906 84.15625 111.597656 84.753906 112.136719 C 85.355469 112.671875 86.003906 113.148438 86.703125 113.554688 C 87.398438 113.964844 88.128906 114.300781 88.890625 114.5625 C 89.65625 114.824219 90.4375 115.007812 91.238281 115.109375 C 92.035156 115.214844 92.839844 115.242188 93.644531 115.183594 C 94.449219 115.128906 95.242188 114.992188 96.019531 114.777344 C 96.796875 114.5625 97.546875 114.273438 98.265625 113.90625 C 98.984375 113.542969 99.660156 113.109375 100.292969 112.609375 C 100.929688 112.109375 101.503906 111.550781 102.023438 110.933594 C 123.023438 87.480469 153.355469 72.722656 187.34375 72.722656 C 250.789062 72.722656 301.960938 123.894531 301.960938 187.34375 C 301.960938 250.789062 250.789062 301.960938 187.34375 301.960938 C 153.359375 301.960938 123.03125 287.203125 102.023438 263.75 C 101.503906 263.132812 100.929688 262.574219 100.292969 262.074219 C 99.660156 261.574219 98.984375 261.140625 98.265625 260.777344 C 97.546875 260.410156 96.796875 260.121094 96.019531 259.90625 C 95.242188 259.691406 94.449219 259.554688 93.644531 259.5 C 92.839844 259.441406 92.035156 259.46875 91.238281 259.574219 C 90.4375 259.675781 89.65625 259.859375 88.890625 260.121094 C 88.128906 260.386719 87.398438 260.71875 86.703125 261.128906 C 86.003906 261.535156 85.355469 262.011719 84.753906 262.546875 C 84.15625 263.085938 83.613281 263.679688 83.128906 264.328125 C 82.648438 264.972656 82.234375 265.664062 81.890625 266.394531 C 81.546875 267.125 81.277344 267.878906 81.085938 268.664062 C 80.894531 269.449219 80.78125 270.242188 80.75 271.050781 C 80.71875 271.855469 80.765625 272.65625 80.894531 273.453125 C 81.023438 274.25 81.226562 275.027344 81.511719 275.78125 C 81.796875 276.539062 82.152344 277.257812 82.582031 277.941406 C 83.007812 278.625 83.5 279.261719 84.058594 279.847656 C 109.429688 308.175781 146.351562 326.09375 187.34375 326.09375 C 263.828125 326.09375 326.09375 263.828125 326.09375 187.34375 C 326.09375 110.855469 263.828125 48.59375 187.34375 48.59375 Z M 103.027344 132.929688 C 101.460938 132.976562 99.957031 133.316406 98.523438 133.949219 C 97.089844 134.582031 95.824219 135.457031 94.730469 136.582031 L 53.574219 177.738281 C 53.207031 178.019531 52.851562 178.320312 52.519531 178.644531 C 52.183594 178.964844 51.867188 179.304688 51.570312 179.664062 C 51.273438 180.023438 51 180.398438 50.746094 180.789062 C 50.496094 181.179688 50.265625 181.582031 50.058594 181.996094 C 49.851562 182.414062 49.671875 182.839844 49.515625 183.28125 C 49.359375 183.71875 49.226562 184.164062 49.121094 184.613281 C 49.015625 185.066406 48.9375 185.523438 48.886719 185.988281 C 48.832031 186.449219 48.808594 186.914062 48.808594 187.378906 C 48.808594 187.84375 48.835938 188.304688 48.890625 188.765625 C 48.945312 189.230469 49.027344 189.6875 49.136719 190.136719 C 49.242188 190.589844 49.375 191.035156 49.535156 191.472656 C 49.695312 191.910156 49.878906 192.335938 50.085938 192.75 C 50.292969 193.167969 50.523438 193.570312 50.78125 193.957031 C 51.035156 194.347656 51.3125 194.71875 51.609375 195.078125 C 51.90625 195.433594 52.222656 195.773438 52.558594 196.09375 C 52.898438 196.414062 53.25 196.710938 53.625 196.992188 L 94.730469 238.101562 C 95.289062 238.679688 95.894531 239.199219 96.554688 239.65625 C 97.214844 240.113281 97.914062 240.5 98.648438 240.820312 C 99.386719 241.136719 100.148438 241.378906 100.933594 241.546875 C 101.71875 241.714844 102.511719 241.800781 103.3125 241.808594 C 104.117188 241.816406 104.910156 241.746094 105.699219 241.597656 C 106.488281 241.445312 107.253906 241.21875 107.996094 240.914062 C 108.738281 240.613281 109.445312 240.238281 110.113281 239.792969 C 110.78125 239.347656 111.402344 238.84375 111.96875 238.277344 C 112.535156 237.707031 113.042969 237.089844 113.484375 236.421875 C 113.929688 235.753906 114.304688 235.046875 114.605469 234.304688 C 114.910156 233.5625 115.136719 232.796875 115.289062 232.007812 C 115.4375 231.21875 115.511719 230.421875 115.5 229.621094 C 115.492188 228.820312 115.40625 228.023438 115.238281 227.238281 C 115.074219 226.453125 114.832031 225.691406 114.511719 224.957031 C 114.195312 224.21875 113.804688 223.523438 113.347656 222.863281 C 112.890625 222.203125 112.371094 221.59375 111.792969 221.039062 L 90.160156 199.40625 L 199.785156 199.40625 C 200.582031 199.417969 201.375 199.351562 202.164062 199.203125 C 202.949219 199.058594 203.710938 198.835938 204.453125 198.539062 C 205.195312 198.238281 205.902344 197.871094 206.570312 197.433594 C 207.238281 196.996094 207.855469 196.496094 208.425781 195.933594 C 208.996094 195.375 209.503906 194.761719 209.953125 194.097656 C 210.398438 193.4375 210.777344 192.738281 211.085938 192 C 211.394531 191.261719 211.628906 190.5 211.785156 189.71875 C 211.941406 188.933594 212.019531 188.140625 212.019531 187.34375 C 212.019531 186.542969 211.941406 185.75 211.785156 184.96875 C 211.628906 184.183594 211.394531 183.421875 211.085938 182.683594 C 210.777344 181.949219 210.398438 181.246094 209.953125 180.585938 C 209.503906 179.921875 208.996094 179.3125 208.425781 178.75 C 207.855469 178.1875 207.238281 177.6875 206.570312 177.25 C 205.902344 176.8125 205.195312 176.445312 204.453125 176.144531 C 203.710938 175.847656 202.949219 175.625 202.164062 175.480469 C 201.375 175.332031 200.582031 175.265625 199.785156 175.277344 L 90.160156 175.277344 L 111.792969 153.644531 C 112.664062 152.796875 113.390625 151.839844 113.972656 150.773438 C 114.554688 149.707031 114.96875 148.574219 115.210938 147.382812 C 115.449219 146.191406 115.511719 144.992188 115.386719 143.78125 C 115.265625 142.574219 114.96875 141.410156 114.496094 140.289062 C 114.019531 139.167969 113.390625 138.144531 112.609375 137.214844 C 111.824219 136.285156 110.921875 135.492188 109.898438 134.835938 C 108.875 134.179688 107.777344 133.6875 106.605469 133.363281 C 105.433594 133.039062 104.242188 132.894531 103.027344 132.929688 Z M 103.027344 132.929688 "/></g></g></svg>