<?xml version="1.0" encoding="UTF-8"?>
<svg xmlns="http://www.w3.org/2000/svg" xmlns:xlink="http://www.w3.org/1999/xlink" width="375pt" height="374.999991pt" viewBox="0 0 375 374.999991" version="1.2">
<defs>
<clipPath id="clip1">
  <path d="M 34 34.058594 L 341.367188 34.058594 L 341.367188 340.808594 L 34 340.808594 Z M 34 34.058594 "/>
</clipPath>
</defs>
<g id="surface1">
<g clip-path="url(#clip1)" clip-rule="nonzero">
<path style=" stroke:none;fill-rule:nonzero;fill:rgb(72.938538%,100%,16.079712%);fill-opacity:1;" d="M 187.609375 336.210938 C 105.46875 336.210938 38.644531 269.46875 38.644531 187.425781 C 38.644531 105.382812 105.46875 38.636719 187.609375 38.636719 C 269.746094 38.636719 336.570312 105.382812 336.570312 187.425781 C 336.570312 269.46875 269.746094 336.210938 187.609375 336.210938 Z M 34.042969 187.425781 C 34.042969 272.003906 102.929688 340.808594 187.609375 340.808594 C 272.285156 340.808594 341.171875 272.003906 341.171875 187.425781 C 341.171875 102.847656 272.285156 34.042969 187.609375 34.042969 C 102.929688 34.042969 34.042969 102.847656 34.042969 187.425781 "/>
</g>
<path style=" stroke:none;fill-rule:nonzero;fill:rgb(72.938538%,100%,16.079712%);fill-opacity:1;" d="M 187.609375 55.40625 C 174.792969 55.40625 162.125 57.234375 149.953125 60.84375 C 148.734375 61.203125 148.042969 62.480469 148.402344 63.699219 C 148.765625 64.914062 150.042969 65.613281 151.261719 65.25 C 163.007812 61.765625 175.238281 60.003906 187.609375 60.003906 C 257.953125 60.003906 315.179688 117.164062 315.179688 187.425781 C 315.179688 216.886719 304.878906 245.617188 286.171875 268.328125 C 285.363281 269.308594 285.503906 270.757812 286.484375 271.5625 C 286.914062 271.914062 287.429688 272.085938 287.949219 272.085938 C 288.609375 272.085938 289.273438 271.800781 289.726562 271.25 C 309.109375 247.71875 319.78125 217.949219 319.78125 187.425781 C 319.78125 114.628906 260.488281 55.40625 187.609375 55.40625 "/>
<path style=" stroke:none;fill-rule:nonzero;fill:rgb(72.938538%,100%,16.079712%);fill-opacity:1;" d="M 266.484375 287.582031 C 243.808594 305.417969 216.535156 314.847656 187.609375 314.847656 C 117.265625 314.847656 60.035156 257.6875 60.035156 187.425781 C 60.035156 160.203125 68.507812 134.230469 84.535156 112.324219 C 85.285156 111.300781 85.0625 109.863281 84.035156 109.113281 C 83.011719 108.363281 81.570312 108.589844 80.820312 109.613281 C 64.210938 132.3125 55.433594 159.21875 55.433594 187.425781 C 55.433594 260.222656 114.726562 319.445312 187.609375 319.445312 C 217.578125 319.445312 245.835938 309.671875 269.332031 291.191406 C 270.324219 290.40625 270.5 288.960938 269.710938 287.964844 C 268.925781 286.96875 267.480469 286.796875 266.484375 287.582031 "/>
<path style=" stroke:none;fill-rule:nonzero;fill:rgb(72.938538%,100%,16.079712%);fill-opacity:1;" d="M 99.476562 94.441406 C 100.03125 94.441406 100.59375 94.242188 101.035156 93.832031 C 108.96875 86.511719 117.792969 80.214844 127.273438 75.128906 C 128.390625 74.523438 128.8125 73.128906 128.207031 72.015625 C 127.605469 70.894531 126.210938 70.476562 125.09375 71.078125 C 115.273438 76.351562 106.125 82.871094 97.914062 90.457031 C 96.980469 91.316406 96.921875 92.773438 97.785156 93.703125 C 98.238281 94.195312 98.859375 94.441406 99.476562 94.441406 "/>
<path style=" stroke:none;fill-rule:nonzero;fill:rgb(72.938538%,100%,16.079712%);fill-opacity:1;" d="M 146.125 124.976562 L 254.414062 187.425781 L 146.125 249.871094 Z M 142.671875 255.84375 C 143.03125 256.046875 143.429688 256.148438 143.824219 256.148438 C 144.222656 256.148438 144.617188 256.046875 144.972656 255.84375 L 260.167969 189.414062 C 260.878906 189.003906 261.316406 188.242188 261.316406 187.425781 C 261.316406 186.601562 260.878906 185.84375 260.167969 185.4375 L 144.972656 119.007812 C 144.261719 118.597656 143.386719 118.597656 142.671875 119.007812 C 141.960938 119.414062 141.523438 120.175781 141.523438 120.996094 L 141.523438 253.851562 C 141.523438 254.671875 141.960938 255.429688 142.671875 255.84375 "/>
</g>
</svg>
