<?xml version="1.0" encoding="UTF-8"?>
<svg xmlns="http://www.w3.org/2000/svg" xmlns:xlink="http://www.w3.org/1999/xlink" width="375pt" height="374.999991pt" viewBox="0 0 375 374.999991" version="1.2">
<defs>
<clipPath id="clip1">
  <path d="M 20.3125 15.625 L 354.8125 15.625 L 354.8125 350.125 L 20.3125 350.125 Z M 20.3125 15.625 "/>
</clipPath>
</defs>
<g id="surface1">
<g clip-path="url(#clip1)" clip-rule="nonzero">
<path style=" stroke:none;fill-rule:nonzero;fill:rgb(81.17981%,84.709167%,86.268616%);fill-opacity:1;" d="M 354.8125 350.125 L 20.3125 350.125 L 20.3125 24.917969 C 20.3125 19.339844 24.027344 15.625 29.605469 15.625 L 345.519531 15.625 C 351.097656 15.625 354.8125 19.339844 354.8125 24.917969 Z M 354.8125 350.125 "/>
</g>
<path style=" stroke:none;fill-rule:nonzero;fill:rgb(14.898682%,19.60907%,21.958923%);fill-opacity:1;" d="M 38.894531 80.667969 L 336.230469 80.667969 L 336.230469 331.542969 L 38.894531 331.542969 Z M 38.894531 80.667969 "/>
<path style=" stroke:none;fill-rule:nonzero;fill:rgb(72.938538%,100%,16.079712%);fill-opacity:1;" d="M 108.582031 205.175781 L 141.105469 224.6875 L 141.105469 247.917969 L 85.355469 213.539062 L 85.355469 194.023438 L 141.105469 164.292969 L 141.105469 187.519531 Z M 108.582031 205.175781 "/>
<path style=" stroke:none;fill-rule:nonzero;fill:rgb(72.938538%,100%,16.079712%);fill-opacity:1;" d="M 178.269531 266.5 L 159.6875 266.5 L 196.855469 136.417969 L 215.4375 136.417969 Z M 178.269531 266.5 "/>
<path style=" stroke:none;fill-rule:nonzero;fill:rgb(72.938538%,100%,16.079712%);fill-opacity:1;" d="M 266.542969 206.105469 L 234.019531 187.519531 L 234.019531 164.292969 L 289.769531 195.882812 L 289.769531 215.394531 L 234.019531 247.917969 L 234.019531 224.6875 Z M 266.542969 206.105469 "/>
<path style=" stroke:none;fill-rule:nonzero;fill:rgb(56.469727%,64.309692%,68.238831%);fill-opacity:1;" d="M 103.9375 48.144531 C 103.9375 49.0625 103.847656 49.96875 103.667969 50.863281 C 103.492188 51.761719 103.226562 52.632812 102.875 53.480469 C 102.527344 54.324219 102.097656 55.128906 101.589844 55.890625 C 101.082031 56.648438 100.503906 57.355469 99.855469 58 C 99.207031 58.648438 98.503906 59.226562 97.742188 59.734375 C 96.980469 60.242188 96.179688 60.671875 95.332031 61.023438 C 94.488281 61.371094 93.617188 61.636719 92.71875 61.816406 C 91.820312 61.992188 90.914062 62.082031 90 62.082031 C 89.085938 62.082031 88.179688 61.992188 87.28125 61.816406 C 86.382812 61.636719 85.511719 61.371094 84.667969 61.023438 C 83.820312 60.671875 83.019531 60.242188 82.257812 59.734375 C 81.496094 59.226562 80.792969 58.648438 80.144531 58 C 79.496094 57.355469 78.917969 56.648438 78.410156 55.890625 C 77.902344 55.128906 77.472656 54.324219 77.125 53.480469 C 76.773438 52.632812 76.507812 51.761719 76.332031 50.863281 C 76.152344 49.96875 76.0625 49.0625 76.0625 48.144531 C 76.0625 47.230469 76.152344 46.324219 76.332031 45.425781 C 76.507812 44.527344 76.773438 43.65625 77.125 42.8125 C 77.472656 41.964844 77.902344 41.164062 78.410156 40.402344 C 78.917969 39.640625 79.496094 38.9375 80.144531 38.289062 C 80.792969 37.644531 81.496094 37.066406 82.257812 36.558594 C 83.019531 36.046875 83.820312 35.621094 84.667969 35.269531 C 85.511719 34.917969 86.382812 34.65625 87.28125 34.476562 C 88.179688 34.296875 89.085938 34.207031 90 34.207031 C 90.914062 34.207031 91.820312 34.296875 92.71875 34.476562 C 93.617188 34.65625 94.488281 34.917969 95.332031 35.269531 C 96.179688 35.621094 96.980469 36.046875 97.742188 36.558594 C 98.503906 37.066406 99.207031 37.644531 99.855469 38.289062 C 100.503906 38.9375 101.082031 39.640625 101.589844 40.402344 C 102.097656 41.164062 102.527344 41.964844 102.875 42.8125 C 103.226562 43.65625 103.492188 44.527344 103.667969 45.425781 C 103.847656 46.324219 103.9375 47.230469 103.9375 48.144531 Z M 103.9375 48.144531 "/>
<path style=" stroke:none;fill-rule:nonzero;fill:rgb(56.469727%,64.309692%,68.238831%);fill-opacity:1;" d="M 66.769531 48.144531 C 66.769531 49.0625 66.679688 49.96875 66.503906 50.863281 C 66.324219 51.761719 66.058594 52.632812 65.710938 53.480469 C 65.359375 54.324219 64.929688 55.128906 64.421875 55.890625 C 63.914062 56.648438 63.335938 57.355469 62.6875 58 C 62.042969 58.648438 61.335938 59.226562 60.578125 59.734375 C 59.816406 60.242188 59.011719 60.671875 58.167969 61.023438 C 57.320312 61.371094 56.449219 61.636719 55.550781 61.816406 C 54.65625 61.992188 53.75 62.082031 52.832031 62.082031 C 51.917969 62.082031 51.011719 61.992188 50.113281 61.816406 C 49.214844 61.636719 48.34375 61.371094 47.5 61.023438 C 46.652344 60.671875 45.851562 60.242188 45.089844 59.734375 C 44.328125 59.226562 43.625 58.648438 42.976562 58 C 42.332031 57.355469 41.753906 56.648438 41.246094 55.890625 C 40.734375 55.128906 40.308594 54.324219 39.957031 53.480469 C 39.605469 52.632812 39.34375 51.761719 39.164062 50.863281 C 38.984375 49.96875 38.894531 49.0625 38.894531 48.144531 C 38.894531 47.230469 38.984375 46.324219 39.164062 45.425781 C 39.34375 44.527344 39.605469 43.65625 39.957031 42.8125 C 40.308594 41.964844 40.734375 41.164062 41.246094 40.402344 C 41.753906 39.640625 42.332031 38.9375 42.976562 38.289062 C 43.625 37.644531 44.328125 37.066406 45.089844 36.558594 C 45.851562 36.046875 46.652344 35.621094 47.5 35.269531 C 48.34375 34.917969 49.214844 34.65625 50.113281 34.476562 C 51.011719 34.296875 51.917969 34.207031 52.832031 34.207031 C 53.75 34.207031 54.65625 34.296875 55.550781 34.476562 C 56.449219 34.65625 57.320312 34.917969 58.167969 35.269531 C 59.011719 35.621094 59.816406 36.046875 60.578125 36.558594 C 61.335938 37.066406 62.042969 37.644531 62.6875 38.289062 C 63.335938 38.9375 63.914062 39.640625 64.421875 40.402344 C 64.929688 41.164062 65.359375 41.964844 65.710938 42.8125 C 66.058594 43.65625 66.324219 44.527344 66.503906 45.425781 C 66.679688 46.324219 66.769531 47.230469 66.769531 48.144531 Z M 66.769531 48.144531 "/>
</g>
</svg>
